<?xml version="1.0" standalone="no"?>
<!DOCTYPE svg PUBLIC "-//W3C//DTD SVG 20010904//EN"
 "http://www.w3.org/TR/2001/REC-SVG-20010904/DTD/svg10.dtd">
<svg version="1.0" xmlns="http://www.w3.org/2000/svg"
 width="60.000000pt" height="60.000000pt" viewBox="0 0 60.000000 60.000000"
 preserveAspectRatio="xMidYMid meet">

<g transform="translate(0.000000,60.000000) scale(0.100000,-0.100000)"
fill="#000000" stroke="none">
<path d="M205 582 c-136 -47 -215 -168 -202 -309 16 -165 155 -283 320 -270
168 14 287 153 274 320 -16 196 -208 323 -392 259z m195 -14 c120 -44 204
-191 180 -316 -22 -118 -98 -196 -218 -227 -152 -39 -296 52 -337 213 -39 150
51 294 208 337 52 14 117 11 167 -7z"/>
<path d="M196 414 c-9 -24 -7 -29 6 -16 7 7 27 12 46 12 l33 0 -3 -100 c-3
-84 -1 -100 12 -100 12 0 15 9 12 39 -4 38 -3 39 33 43 l37 4 -5 -50 c-5 -58
-24 -76 -79 -76 -55 0 -71 28 -66 125 2 61 0 75 -12 75 -13 0 -14 -15 -10 -91
4 -80 8 -93 29 -110 34 -28 96 -25 126 6 20 19 25 34 25 74 0 31 5 53 14 58
42 25 40 85 -5 108 -41 22 -185 21 -193 -1z m192 -16 c15 -15 16 -65 1 -74 -8
-5 -10 1 -7 20 3 16 1 26 -7 26 -7 0 -10 -11 -7 -29 3 -25 0 -29 -25 -34 -39
-7 -43 -2 -43 54 l0 49 38 0 c21 0 43 -5 50 -12z"/>
</g>
</svg>
